<svg width="1355" height="789" viewBox="0 0 1355 789" fill="none" xmlns="http://www.w3.org/2000/svg">
<path fill-rule="evenodd" clip-rule="evenodd" d="M1.18198 482.789C2 549.5 -8.94304 537.586 47.5396 571.619C104.022 605.653 150.156 570.442 194.22 521.381C238.284 472.321 280.279 409.411 336.761 443.445C393.244 477.478 464.215 608.456 516.558 614.791C568.901 621.127 602.616 502.821 638.401 398.364C674.186 293.908 712.041 203.3 772.663 265.032C833.285 326.764 916.675 540.835 975.227 588.718C1033.78 636.6 1067.5 518.295 1119.84 524.63C1172.18 530.966 1243.15 661.943 1283.08 585.184C1323 508.426 1323.2 216.488 1327.64 74.2406L1328.7 38.6916L1328.7 29.1411L1329.76 23.8353L1330.82 18.5295L1332.41 12.6931L1336.13 6.32608L1339.31 2.61204L1341.43 1.02029L1344.62 0.489689L1347.8 1.02029L1350.45 2.61203L1352.58 6.32613L1353.64 10.5708L1354.17 383.57L1354.17 757.1L1353.64 762.937L1352.05 768.243L1350.45 771.426L1347.27 776.732C1341.43 783.63 1331.88 787.874 1326.05 788.405C1275.64 788.405 1212.5 787.874 1160.5 788.405C1110.91 788.405 1045.37 788.405 996.024 788.405C944.027 788.405 892.561 788.405 843.217 788.405C796.525 788.405 769.996 788.405 719.06 788.405C666.002 788.405 600.74 788.405 551.396 788.405C502.583 788.405 413.975 788.405 366.223 788.405C316.348 788.405 277.085 788.405 226.149 788.405C177.335 788.405 129.583 788.405 81.3 788.405C30.3641 788.405 27.7111 788.935 22.9359 786.813L16.0383 783.63L10.7326 779.385L6.48785 774.079L4.36552 770.896L3.30436 767.712L1.18196 760.814L1.18198 482.789Z" fill="#B0B3DC" fill-opacity="0.07"/>
</svg>
