<svg width="244" height="72" viewBox="0 0 244 72" fill="none" xmlns="http://www.w3.org/2000/svg">
<path fill-rule="evenodd" clip-rule="evenodd" d="M0 37.4853C0 32.3541 4.75055 28.5418 9.76 29.653V29.653C20.4073 32.9004 40.8145 39.3952 61.2218 36.1478C81.6291 32.9004 102.036 20.9933 122.444 12.3336C141.964 2.59144 162.371 -2.82088 182.778 1.50897C203.185 5.83883 223.593 20.9933 234.24 28.5706L237.008 30.7193C238.171 31.6225 238.753 32.0741 239.264 32.5541C241.932 35.0576 243.593 38.4498 243.935 42.0923C244 42.7908 244 43.5272 244 45V45V47.4691V50V53.5V56.5V63.5V63.5C244 68.1221 240.253 71.8691 235.631 71.8691H232H229.5H227.5H225.5C221 71.8691 203.185 71.8691 182.778 71.8691C162.371 71.8691 141.964 71.8691 122.444 71.8691C102.036 71.8691 81.6291 71.8691 61.2218 71.8691C38.1527 71.8691 21.5 71.8691 13.5 71.8691H7V71.8691C3.13401 71.8691 0 68.7351 0 64.8691V60V54V50.5V47.0255V40.3709V37.4853Z" fill="#141525"/>
</svg>
