<svg width="168" height="53" viewBox="0 0 168 53" fill="none" xmlns="http://www.w3.org/2000/svg">
<path fill-rule="evenodd" clip-rule="evenodd" d="M0.00439223 4.47525V8.9505H24.5022H49V4.47525V0H24.5022H0.00439223V4.47525ZM0.0311381 28.5863L0.0621641 44.0988L0.293364 44.8877C1.60471 49.3631 5.17629 52.3906 9.73553 52.8915C11.0523 53.0362 24.6825 53.0362 25.9992 52.8915C30.2525 52.4243 33.806 49.6006 35.1586 45.6129C35.7161 43.9697 35.7295 43.711 35.7299 34.6203L35.7304 26.2481H31.193H26.6554L26.6251 33.7152L26.5947 41.1824L26.2731 41.8512C25.8787 42.6715 25.2788 43.2796 24.5173 43.6314L23.9408 43.8977H17.8163H11.6919L11.0521 43.5559C10.2865 43.1469 9.7732 42.6132 9.409 41.8481L9.14003 41.2829L9.11277 27.1784L9.08552 13.0738H4.54281H0L0.0311381 28.5863ZM13.3421 13.1408C13.3047 13.1777 13.274 18.7143 13.274 25.4444C13.274 38.7009 13.2548 38.2288 13.824 38.9641C13.9675 39.1494 14.3249 39.4189 14.6182 39.5629C15.151 39.8244 15.154 39.8247 17.7598 39.8241C19.2837 39.8238 20.5304 39.7792 20.7582 39.7169C21.2564 39.5805 21.9291 38.9844 22.1682 38.467C22.343 38.0888 22.3543 37.5879 22.3564 30.0948L22.3586 22.1248H32.3619H42.3652V17.5993V13.0738H27.8877C19.925 13.0738 13.3795 13.1039 13.3421 13.1408Z" fill="white"/>
<path d="M66.456 5.152V8.44H59.592V11.992H64.728V15.184H59.592V22H55.488V5.152H66.456ZM72.717 5.152V22H68.613V5.152H72.717ZM90.7631 22H86.6591L79.7951 11.608V22H75.6911V5.152H79.7951L86.6591 15.592V5.152H90.7631V22ZM59.52 30.152V40.232C59.52 41.24 59.768 42.016 60.264 42.56C60.76 43.104 61.488 43.376 62.448 43.376C63.408 43.376 64.144 43.104 64.656 42.56C65.168 42.016 65.424 41.24 65.424 40.232V30.152H69.528V40.208C69.528 41.712 69.208 42.984 68.568 44.024C67.928 45.064 67.064 45.848 65.976 46.376C64.904 46.904 63.704 47.168 62.376 47.168C61.048 47.168 59.856 46.912 58.8 46.4C57.76 45.872 56.936 45.088 56.328 44.048C55.72 42.992 55.416 41.712 55.416 40.208V30.152H59.52ZM87.4819 47H83.3779L76.5139 36.608V47H72.4099V30.152H76.5139L83.3779 40.592V30.152H87.4819V47ZM96.5528 47.168C95.3208 47.168 94.2168 46.968 93.2408 46.568C92.2648 46.168 91.4808 45.576 90.8888 44.792C90.3128 44.008 90.0088 43.064 89.9768 41.96H94.3448C94.4088 42.584 94.6248 43.064 94.9928 43.4C95.3608 43.72 95.8408 43.88 96.4328 43.88C97.0408 43.88 97.5208 43.744 97.8728 43.472C98.2248 43.184 98.4008 42.792 98.4008 42.296C98.4008 41.88 98.2568 41.536 97.9688 41.264C97.6968 40.992 97.3528 40.768 96.9368 40.592C96.5368 40.416 95.9608 40.216 95.2088 39.992C94.1208 39.656 93.2328 39.32 92.5448 38.984C91.8568 38.648 91.2648 38.152 90.7688 37.496C90.2728 36.84 90.0248 35.984 90.0248 34.928C90.0248 33.36 90.5928 32.136 91.7288 31.256C92.8648 30.36 94.3448 29.912 96.1688 29.912C98.0248 29.912 99.5208 30.36 100.657 31.256C101.793 32.136 102.401 33.368 102.481 34.952H98.0408C98.0088 34.408 97.8088 33.984 97.4408 33.68C97.0728 33.36 96.6008 33.2 96.0247 33.2C95.5288 33.2 95.1288 33.336 94.8248 33.608C94.5208 33.864 94.3688 34.24 94.3688 34.736C94.3688 35.28 94.6248 35.704 95.1367 36.008C95.6488 36.312 96.4488 36.64 97.5368 36.992C98.6248 37.36 99.5048 37.712 100.177 38.048C100.865 38.384 101.457 38.872 101.953 39.512C102.449 40.152 102.697 40.976 102.697 41.984C102.697 42.944 102.449 43.816 101.953 44.6C101.473 45.384 100.769 46.008 99.8408 46.472C98.9128 46.936 97.8168 47.168 96.5528 47.168ZM109.326 30.152V47H105.222V30.152H109.326ZM116.669 43.64H123.917V47H112.013V43.88L119.213 33.512H112.013V30.152H123.917V33.272L116.669 43.64ZM130.701 33.44V36.848H136.197V40.016H130.701V43.712H136.917V47H126.597V30.152H136.917V33.44H130.701Z" fill="white"/>
</svg>
