<svg width="328" height="356" viewBox="0 0 328 356" fill="none" xmlns="http://www.w3.org/2000/svg">
<path fill-rule="evenodd" clip-rule="evenodd" d="M0.0294011 30.0602V60.1204H164.015H328V30.0602V0H164.015H0.0294011V30.0602ZM0.208435 192.014L0.416119 296.211L1.96374 301.51C10.7417 331.571 34.6494 351.907 65.1684 355.271C73.9827 356.243 165.221 356.243 174.036 355.271C202.507 352.133 226.293 333.166 235.348 306.381C239.079 295.344 239.169 293.606 239.172 232.544L239.175 176.308H208.802H178.428L178.225 226.465L178.022 276.621L175.869 281.114C173.229 286.623 169.213 290.708 164.116 293.071L160.257 294.86H119.26H78.2641L73.9813 292.564C68.8568 289.817 65.4206 286.232 62.9827 281.093L61.1823 277.297L60.9998 182.556L60.8174 87.8163H30.409H0L0.208435 192.014ZM89.3105 88.2668C89.0597 88.514 88.8548 125.704 88.8548 170.909C88.8548 259.953 88.7263 256.782 92.5362 261.721C93.4969 262.966 95.8891 264.776 97.8521 265.743C101.419 267.5 101.439 267.502 118.882 267.498C129.082 267.496 137.428 267.196 138.953 266.778C142.288 265.862 146.791 261.857 148.391 258.382C149.561 255.842 149.637 252.477 149.651 202.146L149.666 148.612H216.627H283.587V118.214V87.8163H186.677C133.375 87.8163 89.5606 88.0189 89.3105 88.2668Z" fill="#333333"/>
</svg>
