<svg width="1732" height="1008" viewBox="0 0 1732 1008" fill="none" xmlns="http://www.w3.org/2000/svg">
<path fill-rule="evenodd" clip-rule="evenodd" d="M0.714132 616.881C1.76043 702.208 -12.2364 686.969 60.0082 730.5C132.253 774.031 191.261 728.993 247.621 666.242C303.982 603.491 357.695 523.026 429.94 566.557C502.184 610.088 592.96 777.615 659.91 785.719C726.86 793.823 769.984 642.503 815.755 508.896C861.526 375.29 909.945 259.398 987.484 338.356C1065.02 417.315 1171.68 691.124 1246.58 752.369C1321.47 813.614 1364.59 662.294 1431.54 670.398C1498.49 678.502 1589.27 846.029 1640.33 747.85C1691.4 649.671 1691.65 276.265 1697.33 94.3231L1698.69 48.8539L1698.69 36.6382L1700.04 29.8518L1701.4 23.0653L1703.44 15.6002L1708.19 7.45644L1712.26 2.70596L1714.97 0.670016L1719.05 -0.00865117L1723.12 0.670017L1726.51 2.70595L1729.23 7.4565L1730.58 12.8856L1731.26 489.974L1731.26 967.741L1730.58 975.206L1728.55 981.992L1726.51 986.064L1722.44 992.851C1714.97 1001.67 1702.76 1007.1 1695.29 1007.78C1630.82 1007.78 1550.06 1007.1 1483.56 1007.78C1420.13 1007.78 1336.29 1007.78 1273.18 1007.78C1206.67 1007.78 1140.84 1007.78 1077.73 1007.78C1018 1007.78 984.072 1007.78 918.922 1007.78C851.058 1007.78 767.584 1007.78 704.47 1007.78C642.035 1007.78 528.701 1007.78 467.623 1007.78C403.83 1007.78 353.61 1007.78 288.46 1007.78C226.025 1007.78 164.947 1007.78 103.19 1007.78C38.0398 1007.78 34.6464 1008.46 28.5387 1005.75L19.7163 1001.67L12.9299 996.244L7.50066 989.458L4.78608 985.386L3.42879 981.314L0.71412 972.491L0.714132 616.881Z" fill="#B0B3DC" fill-opacity="0.07"/>
</svg>
