<svg width="345" height="834" viewBox="0 0 345 834" fill="none" xmlns="http://www.w3.org/2000/svg">
<path fill-rule="evenodd" clip-rule="evenodd" d="M344.674 0.249756V34.9822C344.674 69.7147 344.674 139.18 293.643 208.645C242.611 278.109 140.549 347.574 95.8961 417.039C51.2436 486.504 64.0015 555.969 102.275 625.434C140.549 694.899 204.338 764.364 236.233 799.096L268.127 833.829H0.212194V799.096C0.212194 764.364 0.212194 694.899 0.212194 625.434C0.212194 555.969 0.212194 486.504 0.212194 417.039C0.212194 347.574 0.212194 278.109 0.212194 208.645C0.212194 139.18 0.212194 69.7147 0.212194 34.9822V0.249756L344.674 0.249756Z" fill="#3C3E52"/>
</svg>
