<svg width="345" height="834" viewBox="0 0 345 834" fill="none" xmlns="http://www.w3.org/2000/svg">
<path fill-rule="evenodd" clip-rule="evenodd" d="M0.211426 833.829L0.211426 799.097C0.211426 764.365 0.211426 694.9 51.2429 625.435C102.274 555.97 204.337 486.505 248.99 417.04C293.642 347.575 280.884 278.11 242.611 208.645C204.337 139.18 140.548 69.7153 108.653 34.9828L76.7586 0.250333H344.674V34.9828C344.674 69.7153 344.674 139.18 344.674 208.645C344.674 278.11 344.674 347.575 344.674 417.04C344.674 486.505 344.674 555.97 344.674 625.435C344.674 694.9 344.674 764.365 344.674 799.097V833.829H0.211426Z" fill="#3C3E52"/>
</svg>
