<svg width="222" height="242" viewBox="0 0 222 242" fill="none" xmlns="http://www.w3.org/2000/svg">
<path fill-rule="evenodd" clip-rule="evenodd" d="M0.0198995 20.4342V40.8683H111.01H222V20.4342V0H111.01H0.0198995V20.4342ZM0.141075 130.526L0.281641 201.357L1.32912 204.959C7.27032 225.394 23.4517 239.218 44.1079 241.505C50.0736 242.165 111.827 242.165 117.792 241.505C137.063 239.371 153.162 226.478 159.29 208.27C161.816 200.767 161.877 199.586 161.879 158.078L161.88 119.85H141.323H120.766L120.628 153.945L120.49 188.04L119.033 191.094C117.246 194.84 114.528 197.616 111.078 199.223L108.466 200.439H80.7189H52.9714L50.0727 198.878C46.6043 197.01 44.2786 194.574 42.6285 191.08L41.4099 188.499L41.2865 124.097L41.163 59.6953H20.5817H0L0.141075 130.526ZM60.448 60.0016C60.2782 60.1697 60.1395 85.4502 60.1395 116.18C60.1395 176.71 60.0526 174.554 62.6312 177.911C63.2815 178.758 64.9005 179.988 66.2292 180.646C68.6432 181.84 68.6571 181.841 80.4627 181.838C87.3668 181.837 93.0152 181.634 94.0474 181.349C96.3047 180.726 99.3523 178.004 100.435 175.642C101.228 173.915 101.278 171.628 101.288 137.414L101.298 101.023H146.619H191.94V80.3591V59.6953H126.348C90.2724 59.6953 60.6172 59.8331 60.448 60.0016Z" fill="#F5F5F5"/>
</svg>
